<?xml version="1.0" standalone="no"?>
<!DOCTYPE svg PUBLIC "-//W3C//DTD SVG 20010904//EN"
 "http://www.w3.org/TR/2001/REC-SVG-20010904/DTD/svg10.dtd">
<svg version="1.0" xmlns="http://www.w3.org/2000/svg"
 width="700.000000pt" height="700.000000pt" viewBox="0 0 700.000000 700.000000"
 preserveAspectRatio="xMidYMid meet">
<metadata>
Created by potrace 1.11, written by Peter Selinger 2001-2013
</metadata>
<g transform="translate(0.000000,700.000000) scale(0.100000,-0.100000)"
fill="#000000" stroke="none">
<path d="M0 3500 l0 -3500 3500 0 3500 0 0 3500 0 3500 -3500 0 -3500 0 0
-3500z m3503 3020 c205 -13 373 -39 545 -86 156 -42 262 -92 369 -173 227
-171 447 -535 509 -843 33 -162 8 -383 -111 -986 l-46 -233 28 -21 c70 -52
190 -184 196 -215 12 -62 -31 -178 -107 -292 -20 -29 -36 -57 -36 -62 0 -22
-142 -149 -195 -174 l-55 -27 -156 47 c-129 40 -157 46 -165 34 -14 -23 -27
-97 -59 -328 -29 -208 -45 -305 -57 -344 -5 -18 -24 -19 -471 -14 -343 3 -499
9 -587 21 -151 19 -268 42 -295 56 -44 24 -75 130 -135 466 -29 164 -38 194
-61 194 -10 0 -73 -18 -140 -40 -68 -22 -137 -40 -154 -40 -84 0 -218 120
-327 292 -64 102 -90 226 -58 287 7 15 57 69 110 119 l97 91 -56 213 c-111
427 -156 656 -156 801 0 168 41 312 147 520 86 168 294 417 429 513 132 94
380 191 559 218 113 18 219 19 438 6z m2078 -3600 c10 -6 19 -17 19 -24 0 -8
7 -19 16 -27 25 -20 61 -100 69 -149 4 -32 1 -57 -10 -83 -20 -49 -21 -144 -2
-205 35 -107 37 -122 19 -158 -17 -37 -54 -63 -142 -103 -50 -23 -71 -25 -245
-31 l-190 -6 -178 -72 c-97 -39 -331 -138 -520 -218 -188 -80 -387 -163 -443
-184 -147 -55 -294 -122 -289 -130 3 -4 31 -18 62 -30 32 -13 75 -36 97 -53
21 -16 73 -45 115 -62 42 -18 227 -109 411 -202 184 -93 367 -180 405 -193 63
-22 92 -25 287 -30 214 -5 217 -5 243 -30 39 -36 66 -95 72 -156 5 -51 5 -54
-21 -64 -15 -5 -56 -10 -92 -10 -74 0 -118 -16 -154 -54 -22 -24 -25 -39 -30
-119 l-5 -92 -55 -19 c-30 -10 -84 -19 -120 -20 -55 -1 -73 3 -113 27 -31 18
-52 40 -61 62 -30 71 -96 172 -155 237 -34 36 -61 71 -61 78 0 28 -47 74 -138
134 -127 83 -248 147 -582 306 -151 71 -299 146 -328 166 l-53 35 -297 -146
c-163 -81 -337 -162 -387 -181 -49 -19 -112 -44 -140 -55 -68 -27 -259 -135
-277 -157 -33 -40 -87 -141 -101 -192 -20 -68 -27 -77 -101 -134 -79 -61 -114
-62 -230 -4 l-85 42 20 37 c10 21 19 45 19 52 0 25 -90 87 -125 87 -18 0 -44
9 -59 21 -23 18 -26 28 -26 81 0 83 19 117 87 159 l57 34 186 5 185 6 102 42
c163 66 773 377 773 393 0 4 -62 34 -137 69 -76 34 -181 86 -233 115 -52 29
-116 64 -142 77 -26 12 -87 43 -135 67 -121 60 -292 133 -388 166 -62 21 -105
29 -191 32 -98 5 -121 3 -202 -21 -113 -32 -170 -34 -207 -4 -44 34 -56 80
-64 229 -6 100 -12 144 -24 162 -13 20 -14 32 -5 63 8 29 7 61 -2 122 l-13 82
29 31 c83 87 391 101 512 23 12 -8 53 -76 92 -155 82 -163 46 -133 415 -346
103 -60 398 -211 471 -242 38 -16 152 -69 254 -119 102 -49 206 -99 232 -110
l48 -21 92 49 c51 26 120 56 153 65 107 31 292 112 910 403 359 169 457 224
537 302 49 48 58 61 58 92 0 40 49 169 75 198 14 16 93 45 170 63 40 9 247 7
266 -3z"/>
<path d="M2326 4716 c-21 -8 -43 -21 -48 -28 -46 -68 -67 -179 -49 -265 16
-80 82 -212 131 -261 56 -55 162 -107 250 -122 96 -16 169 -2 286 55 217 105
444 332 432 432 -4 40 -62 68 -221 108 -292 74 -690 115 -781 81z"/>
<path d="M4215 4714 c-317 -43 -556 -110 -585 -163 -19 -36 -11 -94 21 -149
82 -144 373 -348 524 -367 63 -8 175 14 243 49 89 45 190 196 241 360 39 127
22 195 -63 254 -48 32 -49 32 -165 31 -64 -1 -161 -7 -216 -15z"/>
<path d="M3353 4012 c-70 -65 -96 -110 -118 -208 -8 -38 -21 -93 -30 -123 -18
-65 -8 -90 57 -145 l42 -36 123 0 c139 0 160 7 212 65 35 41 40 78 16 145 -8
23 -19 68 -24 99 -14 87 -50 170 -94 218 -34 37 -45 43 -81 43 -36 0 -49 -7
-103 -58z"/>
</g>
</svg>
